<?xml version="1.0" standalone="no"?>
<!DOCTYPE svg PUBLIC "-//W3C//DTD SVG 1.0//EN" "http://www.w3.org/TR/2001/REC-SVG-20010904/DTD/svg10.dtd">
<svg xmlns="http://www.w3.org/2000/svg" xmlns:xlink="http://www.w3.org/1999/xlink" id="body_1" width="61" height="46">

<g transform="matrix(0.059570312 0 0 0.059895836 0 0)">
	<g transform="matrix(3.4751134 0 0 3.4751134 164.48868 -0)">
	</g>
    <path transform="matrix(3.4751134 0 0 3.4751134 164.48868 -0)"  d="M70.7 116.1C 78.1 120.299995 85.299995 124.4 92.5 128.5C 104.2 135.2 115.8 141.9 127.5 148.5C 129.1 149.4 129.6 150.3 129.6 152.1C 129.5 173 129.6 193.90001 129.6 214.8C 129.6 216.90001 129.6 216.90001 127.700005 215.8C 109.1 205.2 90.6 194.6 72 184C 71.3 183.6 70.7 183.2 70.7 182.1C 70.8 160.3 70.7 138.3 70.7 116.1z" stroke="none" fill="#FFFFFF" fill-rule="nonzero" />
	<g transform="matrix(3.4751134 0 0 3.4751134 164.48868 -0)">
	</g>
    <path transform="matrix(3.4751134 0 0 3.4751134 164.48868 -0)"  d="M64.3 104.8C 55.4 99.700005 46.800003 94.9 38.200005 90C 27.7 84 17.3 78 6.8 72C 6 71.6 5.4 71.2 5.4 70C 5.5 48.2 5.4 26.400002 5.4 4.5999985C 5.4 4.4999986 5.4 4.3999987 5.5 4.0999985C 8.6 5.7999983 11.6 7.4999986 14.7 9.299998C 30.599998 18.399998 46.4 27.399998 62.3 36.399998C 63.8 37.199997 64.3 38.1 64.3 39.899998C 64.200005 60.799995 64.3 81.7 64.3 102.6C 64.3 103.2 64.3 103.9 64.3 104.8z" stroke="none" fill="#FFFFFF" fill-rule="nonzero" />
	<g transform="matrix(3.4751134 0 0 3.4751134 164.48868 -0)">
	</g>
    <path transform="matrix(3.4751134 0 0 3.4751134 164.48868 -0)"  d="M70.9 41.6C 77.700005 45.5 84.3 49.199997 90.9 53C 103.4 60.1 115.9 67.3 128.4 74.4C 129.2 74.9 129.59999 75.3 129.59999 76.3C 129.59999 98.200005 129.59999 120 129.59999 141.9C 128.99998 142.29999 128.7 141.79999 128.29999 141.59999C 109.499985 130.9 90.69999 120.09999 71.89999 109.399994C 71.09998 108.99999 70.79999 108.49999 70.79999 107.59999C 70.79999 85.79999 70.79999 63.999992 70.79999 42.19999C 70.8 42.1 70.8 42 70.9 41.6z" stroke="none" fill="#FFFFFF" fill-rule="nonzero" />
	<g transform="matrix(3.4751134 0 0 3.4751134 164.48868 -0)">
	</g>
    <path transform="matrix(3.4751134 0 0 3.4751134 164.48868 -0)"  d="M194.9 41.6C 194.9 42.5 194.9 43 194.9 43.5C 194.9 64.6 194.9 85.8 194.9 106.9C 194.9 108.200005 194.59999 108.9 193.4 109.6C 174.79999 120.2 156.29999 130.8 137.7 141.4C 137.2 141.7 136.8 141.9 136.3 142.2C 135.90001 141.59999 136.1 141 136.1 140.4C 136.1 119.299995 136.1 98.09999 136 76.99999C 136 75.59999 136.5 74.899994 137.7 74.299995C 156.3 63.699997 174.79999 53.099995 193.4 42.499996C 193.8 42.1 194.2 41.9 194.9 41.6z" stroke="none" fill="#FFFFFF" fill-rule="nonzero" />
</g>
</svg>