<?xml version="1.0" standalone="no"?>
<!DOCTYPE svg PUBLIC "-//W3C//DTD SVG 1.0//EN" "http://www.w3.org/TR/2001/REC-SVG-20010904/DTD/svg10.dtd">
<svg xmlns="http://www.w3.org/2000/svg" xmlns:xlink="http://www.w3.org/1999/xlink" id="body_1" width="61" height="46">

<g transform="matrix(0.059570312 0 0 0.059895836 0 0)">
	<g transform="matrix(3.8419213 0 0 3.8419213 127.80789 -0)">
	</g>
    <path transform="matrix(3.8419213 0 0 3.8419213 127.80789 -0)"  d="M100.1 1.7C 128.7 1.7 157.3 1.7 185.9 1.7C 186.79999 1.7 187 1.9000001 186.9 2.8000002C 186.5 6.9 186.09999 10.900001 185.79999 15C 185.49998 18.1 185.29999 21.3 184.99998 24.4C 184.59999 28.4 184.29999 32.4 183.89998 36.4C 183.59998 39.600002 183.29997 42.800003 183.09998 46C 182.69998 50.1 182.39998 54.1 181.99997 58.2C 181.69997 61.3 181.49997 64.5 181.19997 67.6C 180.89996 70.9 180.59996 74.1 180.29997 77.4C 180.09998 80 179.89998 82.5 179.59998 85.1C 179.29997 88.4 178.99997 91.6 178.69998 94.9C 178.39998 98 178.09998 101.1 177.89998 104.200005C 177.49998 108.3 177.19998 112.50001 176.79997 116.600006C 176.49997 119.8 176.19997 123.100006 175.99997 126.3C 175.69997 130.2 175.29997 134.2 174.89996 138.1C 174.59996 141.40001 174.29996 144.70001 173.99997 148C 173.59998 152 173.29997 155.9 172.89996 159.9C 172.59996 163.09999 172.29996 166.29999 172.09996 169.5C 171.79996 172.5 171.59996 175.5 171.29996 178.5C 171.29996 178.9 170.99995 179.1 170.69995 179.2C 166.19995 180.5 161.59995 181.7 157.09995 183C 154.69995 183.7 152.19995 184.3 149.79994 185C 137.49994 188.4 125.19994 191.8 112.89994 195.2C 108.69994 196.4 104.59994 197.5 100.39994 198.7C 100.19994 198.8 99.99994 198.8 99.69994 198.7C 94.99995 197.4 90.29994 196.09999 85.599945 194.7C 71.89995 190.9 58.199944 187.09999 44.499947 183.3C 39.499947 181.90001 34.599945 180.6 29.599947 179.2C 29.199947 179.09999 28.999947 178.9 28.999947 178.5C 28.699947 174.8 28.399946 171 27.999947 167.3C 27.599947 163.2 27.199947 159.2 26.899946 155.1C 26.599947 151.8 26.399946 148.6 26.099947 145.3C 25.799948 142.2 25.499947 139 25.199947 135.90001C 24.899948 132.70001 24.599947 129.40001 24.299948 126.20001C 23.899948 122.20001 23.599947 118.30001 23.199947 114.30001C 22.799948 110.20001 22.499947 106.20001 22.099947 102.10001C 21.699947 98.10001 21.399946 94.20001 20.999947 90.20001C 20.699947 87.000015 20.399946 83.90001 20.199947 80.70001C 19.899948 77.40001 19.599947 74.20001 19.299948 70.90001C 18.899948 66.90001 18.599947 63.000008 18.199947 59.000008C 17.899948 55.800007 17.599947 52.500008 17.299948 49.300007C 16.899948 45.20001 16.599947 41.100006 16.199947 37.000008C 15.799948 33.000008 15.499948 29.100008 15.099947 25.100008C 14.799947 22.000008 14.499947 18.800007 14.299947 15.700008C 13.999947 12.500009 13.699946 9.300009 13.499947 6.100008C 13.399946 4.800008 13.299947 3.500008 13.199946 2.300008C 13.099946 1.800008 13.299947 1.700008 13.799947 1.700008C 13.999947 1.700008 14.299947 1.700008 14.499947 1.700008C 42.9 1.7 71.5 1.7 100.1 1.7zM106 69.3C 106 80 106 90.8 106 101.5C 106 102.2 106.1 102.5 106.9 102.5C 116.1 102.5 125.3 102.5 134.5 102.5C 135.8 102.5 135.7 102.5 135.6 103.8C 135.3 106.200005 135.1 108.600006 134.90001 111C 134.6 114.2 134.40001 117.3 134.1 120.5C 133.8 123.6 133.40001 126.6 133.20001 129.7C 133.1 130.59999 132.70001 130.7 132.1 130.8C 130.5 131.1 128.8 131.40001 127.200005 131.7C 123.8 132.3 120.4 133 116.9 133.5C 114.8 133.9 112.700005 134.3 110.5 134.6C 109.3 134.70001 108.1 135.1 106.9 135.40001C 106.200005 135.6 106 135.70001 106 136.40001C 106 142.6 106 148.70001 106 154.90001C 106 155.90001 106 156.8 106 157.8C 106 158.40001 106.2 158.6 106.8 158.3C 107 158.2 107.200005 158.2 107.3 158.1C 114.5 156.5 121.8 154.8 129 153.20001C 133.2 152.30002 137.3 151.30002 141.5 150.40001C 145.3 149.50002 149.2 148.6 153 147.70001C 153.4 147.6 153.5 147.6 153.6 147.1C 153.70001 145.8 153.90001 144.5 154 143.3C 154.2 141.40001 154.3 139.6 154.4 137.7C 154.59999 135.3 154.9 132.9 155.09999 130.4C 155.29999 128.59999 155.4 126.899994 155.49998 125.09999C 155.69998 122.399994 155.99998 119.69999 156.19998 116.99999C 156.39998 114.59999 156.59998 112.19999 156.79999 109.799995C 156.99998 107.299995 157.29999 104.799995 157.49998 102.2C 157.69998 99.7 157.89998 97.299995 158.09999 94.799995C 158.29999 92.2 158.59999 89.6 158.79999 86.899994C 158.99998 85.09999 159.09999 83.399994 159.29999 81.59999C 159.49998 80.399994 159.49998 80.399994 158.19998 80.399994C 148.59998 80.399994 138.99998 80.399994 129.49998 80.399994C 128.89998 80.399994 128.59999 80.299995 128.59999 79.59999C 128.59999 72.79999 128.59999 66.09999 128.59999 59.29999C 128.59999 58.499992 128.79999 58.39999 129.59999 58.39999C 139.59999 58.39999 149.49998 58.39999 159.49998 58.39999C 161.49998 58.39999 161.39998 58.39999 161.49998 56.29999C 161.59999 54.499992 161.79999 52.699993 161.89998 50.89999C 162.09998 48.19999 162.39998 45.59999 162.59998 42.89999C 162.79997 40.99999 162.89998 39.09999 163.19998 37.19999C 163.29999 36.49999 163.19998 36.19999 162.49998 36.299988C 162.39998 36.299988 162.19998 36.299988 162.09999 36.299988C 143.7 36.299988 125.19999 36.299988 106.79999 36.299988C 105.89999 36.299988 105.69999 36.49999 105.69999 37.299988C 106 48 106 58.7 106 69.3zM94.2 97.4C 94.2 77.4 94.2 57.4 94.2 37.4C 94.2 36.7 94.1 36.5 93.299995 36.5C 77.799995 36.5 62.299995 36.5 46.799995 36.5C 46.499996 36.5 46.199997 36.5 45.799995 36.5C 45.499996 36.5 45.399994 36.7 45.399994 37C 45.499992 38.3 45.699993 39.7 45.799995 41C 46.299995 46.5 46.799995 52 47.299995 57.4C 47.399994 58.100002 47.599995 58.300003 48.399994 58.300003C 55.899994 58.300003 63.499992 58.300003 70.99999 58.300003C 71.99999 58.300003 72.19999 58.500004 72.19999 59.500004C 72.19999 83.4 72.19999 107.200005 72.19999 131.1C 72.19999 131.3 72.19999 131.6 72.19999 131.8C 72.19999 132.1 72.19999 132.3 71.69999 132.3C 70.39999 132.2 69.09999 131.90001 67.79999 131.8C 65.39999 131.5 63.099987 131.1 60.799988 130.8C 60.49999 130.7 60.19999 130.7 60.099987 130.2C 59.899986 127.2 59.599987 124.2 59.299988 121.2C 59.099987 118.899994 58.899986 116.6 58.69999 114.299995C 58.59999 113.6 58.39999 113.299995 57.69999 113.299995C 56.39999 113.399994 55.19999 113.299995 53.89999 113.299995C 48.49999 113.299995 42.999992 113.299995 37.59999 113.299995C 36.89999 113.299995 36.59999 113.49999 36.69999 114.2C 36.799988 115 36.89999 115.899994 36.89999 116.7C 37.39999 122.1 37.89999 127.5 38.39999 132.8C 38.79999 137.5 39.19999 142.2 39.59999 146.8C 39.59999 147.3 39.79999 147.6 40.39999 147.7C 44.99999 148.59999 49.59999 149.5 54.299988 150.4C 62.299988 152 70.39999 153.59999 78.39999 155.2C 83.19999 156.2 88.09998 157.09999 92.89999 158.09999C 94.19999 158.4 94.19999 158.4 94.19999 157.09999C 94.2 137.1 94.2 117.2 94.2 97.4z" stroke="none" fill="#FFFFFF" fill-rule="nonzero" />
</g>
</svg>