<?xml version="1.0" encoding="utf-8"?>
<!-- Generator: Adobe Illustrator 24.0.0, SVG Export Plug-In . SVG Version: 6.00 Build 0)  -->
<svg version="1.1" id="Icons" xmlns="http://www.w3.org/2000/svg" xmlns:xlink="http://www.w3.org/1999/xlink" x="0px" y="0px"
	 viewBox="0 0 200 200" style="enable-background:new 0 0 200 200;" xml:space="preserve">
<style type="text/css">
	.st0{fill:#FFFFFF;}
</style>
<g>
	<g>
		<path class="st0" d="M92,50.1c-0.4,6,0.9,13.6-0.6,21c-2.5,12.2-12.3,20.6-24.7,20.8c-12.1,0.2-24.2,0.2-36.3,0
			C16.3,91.6,5.3,80.6,5,66.4C4.8,54.5,4.8,42.5,5,30.5C5.2,16.2,16.3,5.1,30.7,4.9c11.8-0.2,23.6-0.2,35.5,0
			C80.8,5.1,91.7,16.2,92,30.8C92,36.8,92,42.7,92,50.1z M48.1,69.4c5.6,0,11.3-0.1,16.9,0c3,0.1,4.4-0.8,4.4-4.1
			c-0.1-11.3-0.1-22.5,0-33.8c0-2.9-1-4.1-4-4.1c-11.3,0.1-22.5,0.1-33.8,0c-3.2,0-4.2,1.2-4.2,4.3c0.1,11.1,0.1,22.3,0,33.4
			c0,3.1,1,4.4,4.2,4.3C37.1,69.3,42.6,69.4,48.1,69.4z"/>
		<path class="st0" d="M195.1,50.1c-0.4,6,0.9,13.6-0.6,21c-2.5,12.2-12.3,20.6-24.7,20.8c-12.1,0.2-24.2,0.2-36.3,0
			c-14.1-0.3-25.1-11.3-25.3-25.5c-0.2-11.9-0.2-23.9,0-35.9c0.2-14.3,11.3-25.4,25.7-25.5c11.8-0.2,23.6-0.2,35.5,0
			c14.6,0.2,25.5,11.3,25.8,25.9C195.2,36.8,195.1,42.7,195.1,50.1z M151.2,69.4c5.9,0,11.8,0,17.7,0c2.5,0,3.7-1,3.7-3.6
			c0-11.5-0.1-23.1,0-34.6c0-2.8-1.2-3.8-3.9-3.8c-11.4,0.1-22.8,0.1-34.2,0c-2.7,0-3.9,1-3.9,3.8c0.1,11.4,0.1,22.8,0,34.2
			c0,3,1.2,4.1,4.1,4C140.2,69.3,145.7,69.4,151.2,69.4z"/>
		<path class="st0" d="M46.4,195.1c-5.8-0.4-13.4,0.9-20.8-0.7c-11.9-2.5-20.3-12.3-20.5-24.5s-0.2-24.4,0-36.7
			c0.3-13.9,11.3-24.9,25.3-25.1c12.1-0.2,24.2-0.2,36.3,0c14,0.2,25,11.2,25.3,25.1c0.3,12.2,0.3,24.4,0,36.7
			c-0.3,14-11.3,24.8-25.3,25.1C60.4,195.2,54.2,195.1,46.4,195.1z M48.7,130.6c-5.8,0-11.5,0.1-17.3,0c-3-0.1-4,1.2-4,4.1
			c0.1,11.3,0.1,22.5,0,33.8c0,2.9,1,4.1,4,4.1c11.3-0.1,22.5-0.1,33.8,0c3.2,0,4.2-1.2,4.2-4.3c-0.1-11.1-0.1-22.3,0-33.4
			c0-3.1-1-4.4-4.2-4.3C59.7,130.8,54.2,130.6,48.7,130.6z"/>
		<path class="st0" d="M195.1,153.3c-0.4,6,0.9,13.6-0.7,21.1c-2.5,12.2-12.3,20.5-24.7,20.8c-12.1,0.2-24.2,0.2-36.3,0
			c-14.1-0.3-25.1-11.4-25.3-25.5c-0.2-11.9-0.2-23.9,0-35.9c0.2-14.3,11.3-25.3,25.7-25.5c11.8-0.2,23.6-0.2,35.5,0
			c14.6,0.2,25.5,11.3,25.8,25.9C195.2,140,195.1,145.9,195.1,153.3z M130.7,151.3c0,5.8,0.1,11.5,0,17.3c-0.1,3,1.2,4,4.1,4
			c11.3-0.1,22.5-0.1,33.8,0c2.9,0,4.1-1,4.1-4c-0.1-11.3-0.1-22.5,0-33.8c0-3.2-1.2-4.2-4.3-4.2c-11.1,0.1-22.3,0.1-33.4,0
			c-3.1,0-4.4,1-4.3,4.2C130.8,140.3,130.7,145.8,130.7,151.3z"/>
	</g>
</g>
</svg>
