<?xml version="1.0" standalone="no"?>
<!DOCTYPE svg PUBLIC "-//W3C//DTD SVG 1.0//EN" "http://www.w3.org/TR/2001/REC-SVG-20010904/DTD/svg10.dtd">
<svg xmlns="http://www.w3.org/2000/svg" xmlns:xlink="http://www.w3.org/1999/xlink" id="body_1" width="61" height="46">

<g transform="matrix(0.059570312 0 0 0.059895836 0 0)">
	<g transform="matrix(3.84 0 0 3.84 127.999985 -0)">
	</g>
    <path transform="matrix(3.84 0 0 3.84 127.999985 -0)"  d="M92 50.1C 91.6 56.1 92.9 63.699997 91.4 71.1C 88.9 83.299995 79.1 91.7 66.7 91.899994C 54.6 92.09999 42.499996 92.09999 30.399998 91.899994C 16.3 91.6 5.3 80.6 5 66.4C 4.8 54.5 4.8 42.5 5 30.5C 5.2 16.2 16.3 5.1 30.7 4.9C 42.5 4.7000003 54.300003 4.7000003 66.2 4.9C 80.8 5.1 91.7 16.2 92 30.8C 92 36.8 92 42.7 92 50.1zM48.1 69.4C 53.699997 69.4 59.399998 69.3 65 69.4C 68 69.5 69.4 68.6 69.4 65.3C 69.3 54.000004 69.3 42.800003 69.4 31.500004C 69.4 28.600004 68.4 27.400003 65.4 27.400003C 54.100002 27.500004 42.9 27.500004 31.600002 27.400003C 28.400002 27.400003 27.400002 28.600004 27.400002 31.700005C 27.500002 42.800003 27.500002 54.000004 27.400002 65.100006C 27.400002 68.200005 28.400002 69.50001 31.600002 69.40001C 37.1 69.3 42.6 69.4 48.1 69.4z" stroke="none" fill="#FFFFFF" fill-rule="nonzero" />
	<g transform="matrix(3.84 0 0 3.84 127.999985 -0)">
	</g>
    <path transform="matrix(3.84 0 0 3.84 127.999985 -0)"  d="M195.1 50.1C 194.70001 56.1 196 63.699997 194.5 71.1C 192 83.299995 182.2 91.7 169.8 91.899994C 157.7 92.09999 145.6 92.09999 133.5 91.899994C 119.4 91.59999 108.4 80.59999 108.2 66.399994C 108 54.499992 108 42.499992 108.2 30.499992C 108.399994 16.199993 119.5 5.0999928 133.9 4.9999924C 145.7 4.7999926 157.5 4.7999926 169.4 4.9999924C 184 5.199992 194.9 16.299992 195.2 30.899992C 195.2 36.8 195.1 42.7 195.1 50.1zM151.2 69.4C 157.09999 69.4 163 69.4 168.9 69.4C 171.4 69.4 172.59999 68.4 172.59999 65.8C 172.59999 54.300003 172.49998 42.700005 172.59999 31.200005C 172.59999 28.400005 171.4 27.400005 168.7 27.400005C 157.3 27.500006 145.9 27.500006 134.5 27.400005C 131.8 27.400005 130.6 28.400005 130.6 31.200005C 130.70001 42.600006 130.70001 54.000004 130.6 65.40001C 130.6 68.40001 131.8 69.50001 134.70001 69.40001C 140.2 69.3 145.7 69.4 151.2 69.4z" stroke="none" fill="#FFFFFF" fill-rule="nonzero" />
	<g transform="matrix(3.84 0 0 3.84 127.999985 -0)">
	</g>
    <path transform="matrix(3.84 0 0 3.84 127.999985 -0)"  d="M46.4 195.1C 40.600002 194.70001 33 196 25.600002 194.40001C 13.700003 191.90001 5.300003 182.1 5.1000023 169.90001C 4.9000015 157.70001 4.9000025 145.50002 5.1000023 133.20001C 5.4000025 119.30001 16.400002 108.30001 30.400002 108.10001C 42.5 107.90002 54.600002 107.90002 66.7 108.10001C 80.7 108.30001 91.7 119.30001 92 133.20001C 92.3 145.40001 92.3 157.6 92 169.90001C 91.7 183.90001 80.7 194.70001 66.7 195.00002C 60.4 195.2 54.2 195.1 46.4 195.1zM48.7 130.6C 42.9 130.6 37.2 130.70001 31.400002 130.6C 28.400002 130.5 27.400002 131.8 27.400002 134.70001C 27.500002 146.00002 27.500002 157.20001 27.400002 168.50002C 27.400002 171.40001 28.400002 172.60002 31.400002 172.60002C 42.7 172.50002 53.9 172.50002 65.2 172.60002C 68.399994 172.60002 69.399994 171.40002 69.399994 168.30002C 69.299995 157.20001 69.299995 146.00002 69.399994 134.90002C 69.399994 131.80002 68.399994 130.50003 65.2 130.60002C 59.7 130.8 54.2 130.6 48.7 130.6z" stroke="none" fill="#FFFFFF" fill-rule="nonzero" />
	<g transform="matrix(3.84 0 0 3.84 127.999985 -0)">
	</g>
    <path transform="matrix(3.84 0 0 3.84 127.999985 -0)"  d="M195.1 153.3C 194.70001 159.3 196 166.90001 194.40001 174.40001C 191.90001 186.6 182.1 194.90001 169.70001 195.20001C 157.6 195.40001 145.50002 195.40001 133.40001 195.20001C 119.30001 194.90001 108.30001 183.80002 108.100006 169.70001C 107.90001 157.80002 107.90001 145.80002 108.100006 133.80002C 108.3 119.500015 119.40001 108.500015 133.8 108.30002C 145.6 108.10002 157.40001 108.10002 169.3 108.30002C 183.90001 108.500015 194.8 119.60002 195.1 134.20001C 195.2 140 195.1 145.9 195.1 153.3zM130.7 151.3C 130.7 157.1 130.8 162.8 130.7 168.6C 130.59999 171.6 131.9 172.6 134.8 172.6C 146.1 172.5 157.3 172.5 168.6 172.6C 171.5 172.6 172.70001 171.6 172.70001 168.6C 172.6 157.3 172.6 146.1 172.70001 134.8C 172.70001 131.6 171.50002 130.6 168.40001 130.6C 157.3 130.70001 146.1 130.70001 135 130.6C 131.9 130.6 130.6 131.6 130.7 134.8C 130.8 140.3 130.7 145.8 130.7 151.3z" stroke="none" fill="#FFFFFF" fill-rule="nonzero" />
</g>
</svg>