<?xml version="1.0" standalone="no"?>
<!DOCTYPE svg PUBLIC "-//W3C//DTD SVG 1.0//EN" "http://www.w3.org/TR/2001/REC-SVG-20010904/DTD/svg10.dtd">
<svg xmlns="http://www.w3.org/2000/svg" xmlns:xlink="http://www.w3.org/1999/xlink" id="body_1" width="61" height="46">

<g transform="matrix(0.059570312 0 0 0.059895836 0 0)">
	<g transform="matrix(3.84 0 0 3.84 127.999985 -0)">
	</g>
    <path transform="matrix(3.84 0 0 3.84 127.999985 -0)"  d="M4.5 100.1C 4.9 99.799995 5.1 99.6 5.4 99.299995C 24 80.799995 42.5 62.299995 61.100002 43.799995C 61.500004 43.399994 61.9 43.199997 62.500004 43.199997C 69.8 43.299995 77.100006 43.299995 84.3 43.399998C 84.9 43.399998 85.100006 43.199997 85.4 42.8C 89 36.5 92.6 30.199999 96.1 23.9C 96.4 23.4 96.7 23.1 97.299995 23C 110.7 19.4 124.09999 15.8 137.5 12.3C 149.5 9.1 161.6 5.9 173.6 2.6000004C 173.70001 2.6000004 173.70001 2.6000004 173.8 2.6000004C 174.40001 2.5000005 174.40001 2.5000005 174.5 3.0000005C 176 8.700001 177.6 14.4 179.1 20.1C 183.90001 38.1 188.8 56.1 193.6 74.1C 194.1 75.799995 194.5 77.5 195 79.1C 195.2 79.7 195.1 80.1 194.8 80.7C 191.2 86.799995 187.5 93 183.90001 99.1C 183.50002 99.799995 183.50002 100.299995 183.90001 101C 187.6 107.2 191.20001 113.3 194.8 119.5C 195.1 120 195.1 120.3 195 120.8C 189 143.2 182.9 165.70001 176.9 188.1C 176.09999 191.1 175.29999 194.1 174.5 197.1C 174.3 197.70001 174.3 197.70001 173.7 197.5C 160.59999 194 147.5 190.5 134.4 187C 121.99999 183.7 109.59999 180.4 97.299995 177.1C 96.7 177 96.399994 176.70001 96.1 176.20001C 92.5 169.90001 89 163.70001 85.4 157.40001C 85.1 156.8 84.8 156.6 84.1 156.70001C 76.799995 156.80002 69.6 156.80002 62.3 156.90001C 61.8 156.90001 61.399998 156.8 61 156.40001C 42.4 137.8 23.8 119.30001 5.0999985 100.70001C 5 100.5 4.8 100.3 4.5 100.1zM146.2 31.6C 146 31.4 145.7 31.6 145.5 31.6C 144.4 31.9 143.2 32.2 142.1 32.5C 123.8 37.2 105.600006 41.8 87.3 46.5C 86.9 46.6 86.600006 46.8 86.3 47.1C 72.3 61.399998 58.300003 75.6 44.300003 89.899994C 44.200005 89.99999 43.9 90.09999 44.000004 90.49999C 44.300003 90.49999 44.500004 90.49999 44.800003 90.49999C 67 90.49999 89.200005 90.49999 111.4 90.49999C 112 90.49999 112.3 90.299995 112.6 89.799995C 115.2 85.2 117.9 80.7 120.5 76.1C 129 61.5 137.4 46.899998 145.9 32.3C 146 32.1 146.3 31.9 146.2 31.6C 146.3 31.6 146.3 31.6 146.2 31.6C 146.3 31.5 146.2 31.5 146.2 31.5L146.2 31.5L146.2 31.6zM146.3 168.6C 146.3 168.20001 146.1 168 146 167.8C 134.9 148.6 123.8 129.5 112.7 110.3C 112.399994 109.8 112.1 109.700005 111.6 109.700005C 89.3 109.700005 67 109.700005 44.699997 109.700005C 44.499996 109.700005 44.299995 109.700005 43.999996 109.8C 44.199997 110 44.299995 110.200005 44.499996 110.4C 58.499996 124.6 72.399994 138.8 86.399994 153.1C 86.7 153.40001 87.09999 153.6 87.49999 153.8C 90.899994 154.6 94.19999 155.5 97.59999 156.40001C 112.399994 160.20001 127.19999 164.00002 142 167.8C 143.4 167.9 144.8 168.2 146.3 168.6zM163.1 41.2C 162.8 41.4 162.70001 41.7 162.6 41.9C 151.5 61.100002 140.40001 80.3 129.3 99.4C 129 99.9 129 100.3 129.3 100.700005C 132.40001 106.00001 135.40001 111.3 138.5 116.600006C 146.5 130.5 154.6 144.3 162.6 158.20001C 162.70001 158.40001 162.8 158.70001 163.1 158.90001C 163.20001 158.6 163.3 158.3 163.40001 158.00002C 168.70001 139.00002 174.00002 120.000015 179.40001 101.000015C 179.6 100.30002 179.6 99.70001 179.40001 99.10001C 175.1 83.70001 170.70001 68.20001 166.40001 52.800014C 165.3 48.9 164.2 45.1 163.1 41.2z" stroke="none" fill="#FFFFFF" fill-rule="nonzero" />
	<g transform="matrix(3.84 0 0 3.84 127.999985 -0)">
	</g>
    <path transform="matrix(3.84 0 0 3.84 127.999985 -0)"  d="M146.2 31.6C 146.09999 31.6 146.09999 31.5 146.2 31.5C 146.3 31.5 146.3 31.5 146.2 31.6C 146.3 31.6 146.3 31.6 146.2 31.6z" stroke="none" fill="#FFFFFF" fill-rule="nonzero" />
</g>
</svg>