<?xml version="1.0" standalone="no"?>
<!DOCTYPE svg PUBLIC "-//W3C//DTD SVG 1.0//EN" "http://www.w3.org/TR/2001/REC-SVG-20010904/DTD/svg10.dtd">
<svg xmlns="http://www.w3.org/2000/svg" xmlns:xlink="http://www.w3.org/1999/xlink" id="body_1" width="61" height="46">

<g transform="matrix(0.059570312 0 0 0.059895836 0 0)">
	<g transform="matrix(2.048 0 0 2.048 -0 156.46721)">
	</g>
    <path transform="matrix(2.048 0 0 2.048 -0 156.46721)"  d="M492.5 111.5C 492.7 117.1 490.6 121.8 486.7 125.8C 477.5 134.90001 468.6 144.2 459.2 153.1C 454.1 158 448.90002 162.70001 444.1 167.90001C 435.1 177.6 425.6 186.70001 416.30002 196.00002C 410.40002 201.90001 404.6 208.00002 398.2 213.20001C 389.6 220.20001 380 219.40001 371.80002 211.80002C 369.7 209.80002 367.50003 207.80002 365.6 205.60002C 358.80002 197.80002 359.2 186.80002 366.6 179.50002C 373.5 172.60002 380.80002 166.00002 387.5 159.00002C 402.5 143.50002 417.9 128.40001 433.2 113.20001C 435.1 111.30001 434.2 110.500015 432.80002 109.20001C 411.30002 88.000015 389.90002 66.70001 368.5 45.30001C 363.2 40.10001 359.9 34.10001 361.1 26.20001C 363.2 12.800011 381 1.5000095 393.2 6.2000103C 398 8.0000105 401.1 12.0000105 404.6 15.40001C 410.1 20.70001 415.4 26.20001 420.9 31.60001C 442 52.60001 463.19998 73.70001 484.19998 94.70001C 487.49997 98.000015 490.59998 101.60001 491.9 106.40001C 492.4 108.2 492.4 109.8 492.5 111.5z" stroke="none" fill="#FFFFFF" fill-rule="nonzero" />
	<g transform="matrix(2.048 0 0 2.048 -0 156.46721)">
	</g>
    <path transform="matrix(2.048 0 0 2.048 -0 156.46721)"  d="M7.6 111.8C 7.2999997 104.8 10.9 99.8 15.299999 95.4C 32.2 78.5 49 61.5 66.1 44.8C 77.4 33.9 88.1 22.4 99.399994 11.5C 104.299995 6.7 109.799995 4.1 116.7 4.9C 118.2 5.1 119.6 5.5 121 6C 129.4 9 138.9 21.1 139.2 29C 139.5 35.6 136.3 40.6 132 45C 115.4 61.7 98.7 78.5 81.8 95C 77.100006 99.6 72.4 104.3 67.600006 108.9C 65.600006 110.9 65.700005 112 67.600006 113.9C 80.700005 126.8 93.90001 139.5 106.600006 152.8C 115.200005 161.7 124.100006 170.3 133.1 178.8C 141 186.3 141.70001 199.6 132.90001 207.6C 128.8 211.3 125.100006 215.6 119.600006 217.1C 111.90001 219.3 105.3 216.8 99.8 211.3C 86.3 197.90001 72.5 184.7 59.300003 171C 44.800003 156 29.400003 141.9 14.800003 127C 10.4 122.7 7.3 117.9 7.6 111.8z" stroke="none" fill="#FFFFFF" fill-rule="nonzero" />
	<g transform="matrix(2.048 0 0 2.048 -0 156.46721)">
	</g>
    <path transform="matrix(2.048 0 0 2.048 -0 156.46721)"  d="M269.8 27.4C 270.09998 31.7 267.3 35.6 265.59998 39.9C 258.39996 57.800003 250.99997 75.7 243.59998 93.5C 235.39998 113.2 227.19998 132.8 218.99997 152.5C 211.69997 170.1 204.29997 187.7 196.99997 205.2C 193.29997 214 183.29997 218.8 174.19997 215.9C 170.29997 214.7 166.39996 213.2 162.79997 211.5C 154.39998 207.5 150.39998 198 153.49997 189.2C 157.29997 178.4 162.39996 168.09999 166.79997 157.5C 173.49997 141.1 180.19997 124.7 186.99997 108.4C 195.69997 87.4 204.39996 66.3 213.39996 45.4C 217.29996 36.300003 220.79996 27.100002 224.59996 18.000002C 228.59996 8.500002 234.49995 3.7000017 244.29996 4.7000017C 252.19995 5.500002 259.89996 8.400002 265.59995 14.500002C 268.7 17.9 269.9 22.2 269.8 27.4z" stroke="none" fill="#FFFFFF" fill-rule="nonzero" />
</g>
</svg>