<?xml version="1.0" encoding="utf-8"?>
<!-- Generator: Adobe Illustrator 24.0.0, SVG Export Plug-In . SVG Version: 6.00 Build 0)  -->
<svg version="1.1" id="Icons" xmlns="http://www.w3.org/2000/svg" xmlns:xlink="http://www.w3.org/1999/xlink" x="0px" y="0px"
	 viewBox="0 0 98.1 86" style="enable-background:new 0 0 98.1 86;" xml:space="preserve">
<style type="text/css">
	.st0{fill:#FFFFFF;}
</style>
<g>
	<g>
		<path class="st0" d="M48.9,85.1c-5.9,0-11.9,0-17.8,0c-2.5,0-4.3-1.2-5.4-3.4c-1-2.2-0.7-4.4,0.8-6.3c1.2-1.5,2.8-2.2,4.6-2.2
			c3.7,0,7.4,0,11,0c0.7,0,0.8-0.2,0.8-0.8c0-3.4,0-6.9,0-10.3c0-0.7-0.2-0.8-0.8-0.8c-6.6,0-13.2,0-19.9,0
			c-10,0-18.2-6.7-20.4-16.4c-2.7-11.8,5.8-23.8,17.9-25c1.4-0.1,2.2-0.6,2.9-1.9c5-9.4,12.9-14.8,23.5-15.9
			C61,0.6,74.5,10.4,77.9,25c0.1,0.6,0.4,0.7,0.9,0.7c10.2,0.2,18,8.5,17.6,18.7c-0.3,8.5-7.1,15.8-15.5,16.8
			c-0.9,0.1-1.8,0.2-2.8,0.2c-7.5,0-14.9,0-22.4,0c-0.7,0-0.9,0.1-0.9,0.9c0,3.4,0,6.7,0,10.1c0,0.7,0.1,0.9,0.9,0.9
			c3.7,0,7.4,0,11.1,0c2.9,0,5.3,2.2,5.8,5.2c0.4,2.8-1.4,5.5-4.1,6.4c-0.7,0.2-1.4,0.3-2.2,0.3C60.5,85.1,54.7,85.1,48.9,85.1z
			 M50.2,49.5c9.4,0,18.8,0,28.2,0c3.5,0,6.1-2.6,6.1-6c0-3.3-2.7-5.9-6.1-5.9c-1.9,0-3.8,0-5.8,0c-2.9,0-5.3-2-5.8-4.8
			c-0.2-1.1-0.2-2.2-0.3-3.3c-1.2-10.7-12-18-22.4-14.9c-6.6,1.9-10.8,6.3-12.5,13c-1,3.7-4.1,5.6-7.8,4.5c-0.8-0.2-1.5-0.4-2.4-0.4
			c-4.4,0.3-8.1,4.1-8.2,8.6c-0.1,5.2,3.8,9.2,9.1,9.2C31.6,49.5,40.9,49.5,50.2,49.5z"/>
	</g>
</g>
</svg>
