<?xml version="1.0" standalone="no"?>
<!DOCTYPE svg PUBLIC "-//W3C//DTD SVG 1.0//EN" "http://www.w3.org/TR/2001/REC-SVG-20010904/DTD/svg10.dtd">
<svg xmlns="http://www.w3.org/2000/svg" xmlns:xlink="http://www.w3.org/1999/xlink" id="body_1" width="61" height="46">

<g transform="matrix(0.059570312 0 0 0.059895836 0 0)">
	<g transform="matrix(8.930233 0 0 8.930233 73.97209 -0)">
	</g>
    <path transform="matrix(8.930233 0 0 8.930233 73.97209 -0)"  d="M48.9 85.1C 43 85.1 37 85.1 31.100002 85.1C 28.600002 85.1 26.800003 83.9 25.700003 81.7C 24.700003 79.5 25.000002 77.299995 26.500002 75.399994C 27.700003 73.899994 29.300001 73.2 31.100002 73.2C 34.800003 73.2 38.500004 73.2 42.100002 73.2C 42.800003 73.2 42.9 73 42.9 72.399994C 42.9 68.99999 42.9 65.49999 42.9 62.099995C 42.9 61.399994 42.7 61.299995 42.100002 61.299995C 35.500004 61.299995 28.900002 61.299995 22.200003 61.299995C 12.200003 61.299995 4.000002 54.599995 1.800003 44.899994C -0.899997 33.099995 7.6000032 21.099995 19.700003 19.899994C 21.100002 19.799994 21.900003 19.299994 22.600002 17.999994C 27.600002 8.599995 35.5 3.199994 46.100002 2.0999947C 61 0.6 74.5 10.4 77.9 25C 78 25.6 78.3 25.7 78.8 25.7C 89 25.900002 96.8 34.2 96.4 44.4C 96.1 52.9 89.3 60.2 80.9 61.2C 80 61.3 79.1 61.4 78.1 61.4C 70.6 61.4 63.199997 61.4 55.699997 61.4C 54.999996 61.4 54.799995 61.5 54.799995 62.300003C 54.799995 65.700005 54.799995 69 54.799995 72.4C 54.799995 73.1 54.899994 73.3 55.699997 73.3C 59.399998 73.3 63.1 73.3 66.799995 73.3C 69.7 73.3 72.1 75.5 72.6 78.5C 73 81.3 71.2 84 68.5 84.9C 67.8 85.1 67.1 85.200005 66.3 85.200005C 60.5 85.1 54.7 85.1 48.9 85.1zM50.2 49.5C 59.6 49.5 69 49.5 78.4 49.5C 81.9 49.5 84.5 46.9 84.5 43.5C 84.5 40.2 81.8 37.6 78.4 37.6C 76.5 37.6 74.6 37.6 72.6 37.6C 69.7 37.6 67.299995 35.6 66.799995 32.8C 66.6 31.699999 66.6 30.599998 66.49999 29.5C 65.299995 18.8 54.499992 11.5 44.09999 14.6C 37.499992 16.5 33.29999 20.900002 31.59999 27.6C 30.59999 31.300001 27.49999 33.2 23.799992 32.1C 22.999992 31.899998 22.299992 31.699999 21.399992 31.699999C 16.999992 31.999998 13.299992 35.8 13.199992 40.3C 13.099992 45.5 16.999992 49.5 22.299992 49.5C 31.6 49.5 40.9 49.5 50.2 49.5z" stroke="none" fill="#FFFFFF" fill-rule="nonzero" />
</g>
</svg>