<?xml version="1.0"?>
<svg xmlns="http://www.w3.org/2000/svg" xmlns:xlink="http://www.w3.org/1999/xlink" xmlns:svgjs="http://svgjs.com/svgjs" version="1.1" width="512" height="512" x="0" y="0" viewBox="0 0 512 512" style="enable-background:new 0 0 512 512" xml:space="preserve" class=""><g><path xmlns="http://www.w3.org/2000/svg" d="m152.431 364.105 4.015-28.107-74.819 81.054 7.859 15.719z" fill="#ffffff" data-original="#000000" style=""/><path xmlns="http://www.w3.org/2000/svg" d="m161.886 306.515a1519.837 1519.837 0 0 1 100.365-114.392c48.649-50.269 119.186-115.862 192.536-159.353-61.557 4.096-114.226 19.903-158.787 47.776v31.141a8 8 0 1 1 -16 0v-20.369q-36.689 26.561-65.6 65.168c-40.926 54.569-46.385 107.422-46.435 107.95a8 8 0 0 1 -14.365 4.05l-14.746-19.661c-10.146 37.19-3.855 67.287.748 81.831z" fill="#ffffff" data-original="#000000" style=""/><path xmlns="http://www.w3.org/2000/svg" d="m273.885 203.11c-53.174 54.932-90.992 102.529-98.267 111.814l-5.894 41.259c57.781-19.01 103.541-43.33 142.582-76.5h-48.306a8 8 0 0 1 0-16h65.918a399.3 399.3 0 0 0 32.765-36.007l-37.213-12.4a8 8 0 0 1 .51-15.33c.778-.2 70.7-18.837 111.511-56.259h-21.491a8 8 0 1 1 0-16h36.039c19.923-27.369 25.651-69.125 27.3-90.447-77.47 41.916-153.894 112.605-205.454 165.87z" fill="#ffffff" data-original="#000000" style=""/><path xmlns="http://www.w3.org/2000/svg" d="m67.672 456.568 10.24-11.17-7.936-15.872c-10.706 12.12-23.702 31.29-29.976 41.974 9.5-7.5 23.473-13.748 27.672-14.932z" fill="#ffffff" data-original="#000000" style=""/></g></svg>
