<?xml version="1.0" encoding="utf-8"?>
<!-- Generator: Adobe Illustrator 24.0.0, SVG Export Plug-In . SVG Version: 6.00 Build 0)  -->
<svg version="1.1" id="Icons" xmlns="http://www.w3.org/2000/svg" xmlns:xlink="http://www.w3.org/1999/xlink" x="0px" y="0px"
	 viewBox="0 0 500 222.2" style="enable-background:new 0 0 500 222.2;" xml:space="preserve">
<style type="text/css">
	.st0{fill:#FFFFFF;}
</style>
<g>
	<g>
		<path class="st0" d="M492.5,111.5c0.2,5.6-1.9,10.3-5.8,14.3c-9.2,9.1-18.1,18.4-27.5,27.3c-5.1,4.9-10.3,9.6-15.1,14.8
			c-9,9.7-18.5,18.8-27.8,28.1c-5.9,5.9-11.7,12-18.1,17.2c-8.6,7-18.2,6.2-26.4-1.4c-2.1-2-4.3-4-6.2-6.2c-6.8-7.8-6.4-18.8,1-26.1
			c6.9-6.9,14.2-13.5,20.9-20.5c15-15.5,30.4-30.6,45.7-45.8c1.9-1.9,1-2.7-0.4-4c-21.5-21.2-42.9-42.5-64.3-63.9
			c-5.3-5.2-8.6-11.2-7.4-19.1c2.1-13.4,19.9-24.7,32.1-20c4.8,1.8,7.9,5.8,11.4,9.2c5.5,5.3,10.8,10.8,16.3,16.2
			c21.1,21,42.3,42.1,63.3,63.1c3.3,3.3,6.4,6.9,7.7,11.7C492.4,108.2,492.4,109.8,492.5,111.5z"/>
		<path class="st0" d="M7.6,111.8c-0.3-7,3.3-12,7.7-16.4C32.2,78.5,49,61.5,66.1,44.8c11.3-10.9,22-22.4,33.3-33.3
			c4.9-4.8,10.4-7.4,17.3-6.6c1.5,0.2,2.9,0.6,4.3,1.1c8.4,3,17.9,15.1,18.2,23c0.3,6.6-2.9,11.6-7.2,16
			c-16.6,16.7-33.3,33.5-50.2,50c-4.7,4.6-9.4,9.3-14.2,13.9c-2,2-1.9,3.1,0,5c13.1,12.9,26.3,25.6,39,38.9
			c8.6,8.9,17.5,17.5,26.5,26c7.9,7.5,8.6,20.8-0.2,28.8c-4.1,3.7-7.8,8-13.3,9.5c-7.7,2.2-14.3-0.3-19.8-5.8
			c-13.5-13.4-27.3-26.6-40.5-40.3c-14.5-15-29.9-29.1-44.5-44C10.4,122.7,7.3,117.9,7.6,111.8z"/>
		<path class="st0" d="M269.8,27.4c0.3,4.3-2.5,8.2-4.2,12.5c-7.2,17.9-14.6,35.8-22,53.6c-8.2,19.7-16.4,39.3-24.6,59
			c-7.3,17.6-14.7,35.2-22,52.7c-3.7,8.8-13.7,13.6-22.8,10.7c-3.9-1.2-7.8-2.7-11.4-4.4c-8.4-4-12.4-13.5-9.3-22.3
			c3.8-10.8,8.9-21.1,13.3-31.7c6.7-16.4,13.4-32.8,20.2-49.1c8.7-21,17.4-42.1,26.4-63c3.9-9.1,7.4-18.3,11.2-27.4
			c4-9.5,9.9-14.3,19.7-13.3c7.9,0.8,15.6,3.7,21.3,9.8C268.7,17.9,269.9,22.2,269.8,27.4z"/>
	</g>
</g>
</svg>
