<?xml version="1.0" encoding="utf-8"?>
<!-- Generator: Adobe Illustrator 24.0.0, SVG Export Plug-In . SVG Version: 6.00 Build 0)  -->
<svg version="1.1" id="Icons" xmlns="http://www.w3.org/2000/svg" xmlns:xlink="http://www.w3.org/1999/xlink" x="0px" y="0px"
	 viewBox="0 0 200 199.9" style="enable-background:new 0 0 200 199.9;" xml:space="preserve">
<style type="text/css">
	.st0{fill:#FFFFFF;}
</style>
<g>
	<g>
		<path class="st0" d="M100.1,1.7c28.6,0,57.2,0,85.8,0c0.9,0,1.1,0.2,1,1.1c-0.4,4.1-0.8,8.1-1.1,12.2c-0.3,3.1-0.5,6.3-0.8,9.4
			c-0.4,4-0.7,8-1.1,12c-0.3,3.2-0.6,6.4-0.8,9.6c-0.4,4.1-0.7,8.1-1.1,12.2c-0.3,3.1-0.5,6.3-0.8,9.4c-0.3,3.3-0.6,6.5-0.9,9.8
			c-0.2,2.6-0.4,5.1-0.7,7.7c-0.3,3.3-0.6,6.5-0.9,9.8c-0.3,3.1-0.6,6.2-0.8,9.3c-0.4,4.1-0.7,8.3-1.1,12.4
			c-0.3,3.2-0.6,6.5-0.8,9.7c-0.3,3.9-0.7,7.9-1.1,11.8c-0.3,3.3-0.6,6.6-0.9,9.9c-0.4,4-0.7,7.9-1.1,11.9c-0.3,3.2-0.6,6.4-0.8,9.6
			c-0.3,3-0.5,6-0.8,9c0,0.4-0.3,0.6-0.6,0.7c-4.5,1.3-9.1,2.5-13.6,3.8c-2.4,0.7-4.9,1.3-7.3,2c-12.3,3.4-24.6,6.8-36.9,10.2
			c-4.2,1.2-8.3,2.3-12.5,3.5c-0.2,0.1-0.4,0.1-0.7,0c-4.7-1.3-9.4-2.6-14.1-4c-13.7-3.8-27.4-7.6-41.1-11.4
			c-5-1.4-9.9-2.7-14.9-4.1c-0.4-0.1-0.6-0.3-0.6-0.7c-0.3-3.7-0.6-7.5-1-11.2c-0.4-4.1-0.8-8.1-1.1-12.2c-0.3-3.3-0.5-6.5-0.8-9.8
			c-0.3-3.1-0.6-6.3-0.9-9.4c-0.3-3.2-0.6-6.5-0.9-9.7c-0.4-4-0.7-7.9-1.1-11.9c-0.4-4.1-0.7-8.1-1.1-12.2c-0.4-4-0.7-7.9-1.1-11.9
			c-0.3-3.2-0.6-6.3-0.8-9.5c-0.3-3.3-0.6-6.5-0.9-9.8c-0.4-4-0.7-7.9-1.1-11.9c-0.3-3.2-0.6-6.5-0.9-9.7c-0.4-4.1-0.7-8.2-1.1-12.3
			c-0.4-4-0.7-7.9-1.1-11.9c-0.3-3.1-0.6-6.3-0.8-9.4c-0.3-3.2-0.6-6.4-0.8-9.6c-0.1-1.3-0.2-2.6-0.3-3.8c-0.1-0.5,0.1-0.6,0.6-0.6
			c0.2,0,0.5,0,0.7,0C42.9,1.7,71.5,1.7,100.1,1.7z M106,69.3c0,10.7,0,21.5,0,32.2c0,0.7,0.1,1,0.9,1c9.2,0,18.4,0,27.6,0
			c1.3,0,1.2,0,1.1,1.3c-0.3,2.4-0.5,4.8-0.7,7.2c-0.3,3.2-0.5,6.3-0.8,9.5c-0.3,3.1-0.7,6.1-0.9,9.2c-0.1,0.9-0.5,1-1.1,1.1
			c-1.6,0.3-3.3,0.6-4.9,0.9c-3.4,0.6-6.8,1.3-10.3,1.8c-2.1,0.4-4.2,0.8-6.4,1.1c-1.2,0.1-2.4,0.5-3.6,0.8c-0.7,0.2-0.9,0.3-0.9,1
			c0,6.2,0,12.3,0,18.5c0,1,0,1.9,0,2.9c0,0.6,0.2,0.8,0.8,0.5c0.2-0.1,0.4-0.1,0.5-0.2c7.2-1.6,14.5-3.3,21.7-4.9
			c4.2-0.9,8.3-1.9,12.5-2.8c3.8-0.9,7.7-1.8,11.5-2.7c0.4-0.1,0.5-0.1,0.6-0.6c0.1-1.3,0.3-2.6,0.4-3.8c0.2-1.9,0.3-3.7,0.4-5.6
			c0.2-2.4,0.5-4.8,0.7-7.3c0.2-1.8,0.3-3.5,0.4-5.3c0.2-2.7,0.5-5.4,0.7-8.1c0.2-2.4,0.4-4.8,0.6-7.2c0.2-2.5,0.5-5,0.7-7.6
			c0.2-2.5,0.4-4.9,0.6-7.4c0.2-2.6,0.5-5.2,0.7-7.9c0.2-1.8,0.3-3.5,0.5-5.3c0.2-1.2,0.2-1.2-1.1-1.2c-9.6,0-19.2,0-28.7,0
			c-0.6,0-0.9-0.1-0.9-0.8c0-6.8,0-13.5,0-20.3c0-0.8,0.2-0.9,1-0.9c10,0,19.9,0,29.9,0c2,0,1.9,0,2-2.1c0.1-1.8,0.3-3.6,0.4-5.4
			c0.2-2.7,0.5-5.3,0.7-8c0.2-1.9,0.3-3.8,0.6-5.7c0.1-0.7,0-1-0.7-0.9c-0.1,0-0.3,0-0.4,0c-18.4,0-36.9,0-55.3,0
			c-0.9,0-1.1,0.2-1.1,1C106,48,106,58.7,106,69.3z M94.2,97.4c0-20,0-40,0-60c0-0.7-0.1-0.9-0.9-0.9c-15.5,0-31,0-46.5,0
			c-0.3,0-0.6,0-1,0c-0.3,0-0.4,0.2-0.4,0.5c0.1,1.3,0.3,2.7,0.4,4c0.5,5.5,1,11,1.5,16.4c0.1,0.7,0.3,0.9,1.1,0.9
			c7.5,0,15.1,0,22.6,0c1,0,1.2,0.2,1.2,1.2c0,23.9,0,47.7,0,71.6c0,0.2,0,0.5,0,0.7c0,0.3,0,0.5-0.5,0.5c-1.3-0.1-2.6-0.4-3.9-0.5
			c-2.4-0.3-4.7-0.7-7-1c-0.3-0.1-0.6-0.1-0.7-0.6c-0.2-3-0.5-6-0.8-9c-0.2-2.3-0.4-4.6-0.6-6.9c-0.1-0.7-0.3-1-1-1
			c-1.3,0.1-2.5,0-3.8,0c-5.4,0-10.9,0-16.3,0c-0.7,0-1,0.2-0.9,0.9c0.1,0.8,0.2,1.7,0.2,2.5c0.5,5.4,1,10.8,1.5,16.1
			c0.4,4.7,0.8,9.4,1.2,14c0,0.5,0.2,0.8,0.8,0.9c4.6,0.9,9.2,1.8,13.9,2.7c8,1.6,16.1,3.2,24.1,4.8c4.8,1,9.7,1.9,14.5,2.9
			c1.3,0.3,1.3,0.3,1.3-1C94.2,137.1,94.2,117.2,94.2,97.4z"/>
	</g>
</g>
</svg>
