<?xml version="1.0" encoding="utf-8"?>
<!-- Generator: Adobe Illustrator 24.0.0, SVG Export Plug-In . SVG Version: 6.00 Build 0)  -->
<svg version="1.1" id="Icons" xmlns="http://www.w3.org/2000/svg" xmlns:xlink="http://www.w3.org/1999/xlink" x="0px" y="0px"
	 viewBox="0 0 200 221" style="enable-background:new 0 0 200 221;" xml:space="preserve">
<style type="text/css">
	.st0{fill:#FFFFFF;}
</style>
<g>
	<g>
		<path class="st0" d="M70.7,116.1c7.4,4.2,14.6,8.3,21.8,12.4c11.7,6.7,23.3,13.4,35,20c1.6,0.9,2.1,1.8,2.1,3.6
			c-0.1,20.9,0,41.8,0,62.7c0,2.1,0,2.1-1.9,1C109.1,205.2,90.6,194.6,72,184c-0.7-0.4-1.3-0.8-1.3-1.9
			C70.8,160.3,70.7,138.3,70.7,116.1z"/>
		<path class="st0" d="M64.3,104.8c-8.9-5.1-17.5-9.9-26.1-14.8C27.7,84,17.3,78,6.8,72c-0.8-0.4-1.4-0.8-1.4-2
			c0.1-21.8,0-43.6,0-65.4c0-0.1,0-0.2,0.1-0.5c3.1,1.7,6.1,3.4,9.2,5.2c15.9,9.1,31.7,18.1,47.6,27.1c1.5,0.8,2,1.7,2,3.5
			c-0.1,20.9,0,41.8,0,62.7C64.3,103.2,64.3,103.9,64.3,104.8z"/>
		<path class="st0" d="M70.9,41.6c6.8,3.9,13.4,7.6,20,11.4c12.5,7.1,25,14.3,37.5,21.4c0.8,0.5,1.2,0.9,1.2,1.9
			c0,21.9,0,43.7,0,65.6c-0.6,0.4-0.9-0.1-1.3-0.3c-18.8-10.7-37.6-21.5-56.4-32.2c-0.8-0.4-1.1-0.9-1.1-1.8c0-21.8,0-43.6,0-65.4
			C70.8,42.1,70.8,42,70.9,41.6z"/>
		<path class="st0" d="M194.9,41.6c0,0.9,0,1.4,0,1.9c0,21.1,0,42.3,0,63.4c0,1.3-0.3,2-1.5,2.7c-18.6,10.6-37.1,21.2-55.7,31.8
			c-0.5,0.3-0.9,0.5-1.4,0.8c-0.4-0.6-0.2-1.2-0.2-1.8c0-21.1,0-42.3-0.1-63.4c0-1.4,0.5-2.1,1.7-2.7c18.6-10.6,37.1-21.2,55.7-31.8
			C193.8,42.1,194.2,41.9,194.9,41.6z"/>
	</g>
</g>
</svg>
