<?xml version="1.0" encoding="utf-8"?>
<!-- Generator: Adobe Illustrator 24.0.0, SVG Export Plug-In . SVG Version: 6.00 Build 0)  -->
<svg version="1.1" id="Icons" xmlns="http://www.w3.org/2000/svg" xmlns:xlink="http://www.w3.org/1999/xlink" x="0px" y="0px"
	 viewBox="0 0 200 200" style="enable-background:new 0 0 200 200;" xml:space="preserve">
<style type="text/css">
	.st0{fill:#FFFFFF;}
</style>
<g>
	<g>
		<path class="st0" d="M4.5,100.1c0.4-0.3,0.6-0.5,0.9-0.8c18.6-18.5,37.1-37,55.7-55.5c0.4-0.4,0.8-0.6,1.4-0.6
			c7.3,0.1,14.6,0.1,21.8,0.2c0.6,0,0.8-0.2,1.1-0.6c3.6-6.3,7.2-12.6,10.7-18.9c0.3-0.5,0.6-0.8,1.2-0.9
			c13.4-3.6,26.8-7.2,40.2-10.7c12-3.2,24.1-6.4,36.1-9.7c0.1,0,0.1,0,0.2,0c0.6-0.1,0.6-0.1,0.7,0.4c1.5,5.7,3.1,11.4,4.6,17.1
			c4.8,18,9.7,36,14.5,54c0.5,1.7,0.9,3.4,1.4,5c0.2,0.6,0.1,1-0.2,1.6c-3.6,6.1-7.3,12.3-10.9,18.4c-0.4,0.7-0.4,1.2,0,1.9
			c3.7,6.2,7.3,12.3,10.9,18.5c0.3,0.5,0.3,0.8,0.2,1.3c-6,22.4-12.1,44.9-18.1,67.3c-0.8,3-1.6,6-2.4,9c-0.2,0.6-0.2,0.6-0.8,0.4
			c-13.1-3.5-26.2-7-39.3-10.5c-12.4-3.3-24.8-6.6-37.1-9.9c-0.6-0.1-0.9-0.4-1.2-0.9c-3.6-6.3-7.1-12.5-10.7-18.8
			c-0.3-0.6-0.6-0.8-1.3-0.7c-7.3,0.1-14.5,0.1-21.8,0.2c-0.5,0-0.9-0.1-1.3-0.5c-18.6-18.6-37.2-37.1-55.9-55.7
			C5,100.5,4.8,100.3,4.5,100.1z M146.2,31.6c-0.2-0.2-0.5,0-0.7,0c-1.1,0.3-2.3,0.6-3.4,0.9c-18.3,4.7-36.5,9.3-54.8,14
			c-0.4,0.1-0.7,0.3-1,0.6c-14,14.3-28,28.5-42,42.8c-0.1,0.1-0.4,0.2-0.3,0.6c0.3,0,0.5,0,0.8,0c22.2,0,44.4,0,66.6,0
			c0.6,0,0.9-0.2,1.2-0.7c2.6-4.6,5.3-9.1,7.9-13.7c8.5-14.6,16.9-29.2,25.4-43.8C146,32.1,146.3,31.9,146.2,31.6
			C146.3,31.6,146.3,31.6,146.2,31.6c0.1-0.1,0-0.1,0-0.1V31.6z M146.3,168.6c0-0.4-0.2-0.6-0.3-0.8c-11.1-19.2-22.2-38.3-33.3-57.5
			c-0.3-0.5-0.6-0.6-1.1-0.6c-22.3,0-44.6,0-66.9,0c-0.2,0-0.4,0-0.7,0.1c0.2,0.2,0.3,0.4,0.5,0.6c14,14.2,27.9,28.4,41.9,42.7
			c0.3,0.3,0.7,0.5,1.1,0.7c3.4,0.8,6.7,1.7,10.1,2.6c14.8,3.8,29.6,7.6,44.4,11.4C143.4,167.9,144.8,168.2,146.3,168.6z
			 M163.1,41.2c-0.3,0.2-0.4,0.5-0.5,0.7c-11.1,19.2-22.2,38.4-33.3,57.5c-0.3,0.5-0.3,0.9,0,1.3c3.1,5.3,6.1,10.6,9.2,15.9
			c8,13.9,16.1,27.7,24.1,41.6c0.1,0.2,0.2,0.5,0.5,0.7c0.1-0.3,0.2-0.6,0.3-0.9c5.3-19,10.6-38,16-57c0.2-0.7,0.2-1.3,0-1.9
			c-4.3-15.4-8.7-30.9-13-46.3C165.3,48.9,164.2,45.1,163.1,41.2z"/>
		<path class="st0" d="M146.2,31.6c-0.1,0-0.1-0.1,0-0.1S146.3,31.5,146.2,31.6C146.3,31.6,146.3,31.6,146.2,31.6L146.2,31.6z"/>
	</g>
</g>
</svg>
