<?xml version="1.0"?>
<svg xmlns="http://www.w3.org/2000/svg" xmlns:xlink="http://www.w3.org/1999/xlink" xmlns:svgjs="http://svgjs.com/svgjs" version="1.1" width="512" height="512" x="0" y="0" viewBox="0 0 512.003 512.003" style="enable-background:new 0 0 512 512" xml:space="preserve" class=""><g>
<g xmlns="http://www.w3.org/2000/svg">
	<g>
		<path d="M499.332,216.556h-28.444c-2.1-11.495-5.133-22.834-9.053-33.845l24.619-14.214c2.931-1.691,5.027-4.423,5.903-7.693    c0.876-3.269,0.426-6.683-1.266-9.613l-26.777-46.378c-3.493-6.05-11.255-8.13-17.306-4.638l-5.592,3.229    c-3.596,2.077-4.828,6.675-2.752,10.271c2.077,3.597,6.676,4.828,10.272,2.752l3.539-2.043l24.407,42.273l-28.074,16.209    c-3.217,1.857-4.595,5.784-3.246,9.244c5.413,13.875,9.291,28.373,11.526,43.093c0.558,3.674,3.717,6.39,7.434,6.39h32.439v48.814    h-32.439c-3.717,0-6.876,2.716-7.434,6.39c-2.235,14.719-6.113,29.218-11.526,43.094c-1.35,3.46,0.029,7.387,3.246,9.244    l28.074,16.208l-24.407,42.273l-28.122-16.236c-3.214-1.857-7.302-1.089-9.624,1.806c-9.317,11.611-19.929,22.223-31.541,31.541    c-2.895,2.323-3.662,6.41-1.806,9.624l16.236,28.122l-42.274,24.407l-16.208-28.074c-1.857-3.216-5.784-4.597-9.244-3.246    c-13.875,5.413-28.373,9.29-43.094,11.526c-3.674,0.558-6.39,3.718-6.39,7.434v32.439h-48.813V464.52    c0-3.717-2.716-6.876-6.39-7.434c-14.72-2.235-29.219-6.112-43.094-11.526c-3.459-1.348-7.388,0.029-9.244,3.246l-16.208,28.074    l-42.274-24.407l16.236-28.122c1.856-3.214,1.089-7.302-1.806-9.624c-11.612-9.318-22.224-19.93-31.541-31.541    c-2.322-2.894-6.408-3.664-9.624-1.806l-28.122,16.236l-24.407-42.273l28.074-16.208c3.216-1.857,4.595-5.784,3.246-9.244    c-5.413-13.876-9.291-28.375-11.526-43.094c-0.558-3.675-3.717-6.39-7.434-6.39H15.039v-48.814h32.439    c3.717,0,6.876-2.716,7.434-6.39c2.235-14.719,6.113-29.218,11.526-43.093c1.35-3.46-0.029-7.387-3.246-9.244l-28.074-16.209    l24.407-42.273l28.122,16.236c3.214,1.857,7.302,1.089,9.624-1.806c9.317-11.611,19.929-22.223,31.541-31.541    c2.895-2.322,3.662-6.41,1.806-9.624l-16.236-28.122l42.274-24.407l16.208,28.074c1.857,3.216,5.785,4.596,9.244,3.246    c13.875-5.413,28.373-9.29,43.094-11.526c3.674-0.558,6.39-3.718,6.39-7.434V15.04h48.813v32.439c0,3.717,2.716,6.876,6.39,7.434    c14.72,2.235,29.219,6.112,43.094,11.526c3.461,1.351,7.388-0.028,9.244-3.246l16.208-28.074l42.274,24.407l-16.236,28.122    c-1.856,3.214-1.089,7.301,1.805,9.624c3.612,2.898,7.168,5.957,10.57,9.09c3.054,2.812,7.811,2.617,10.625-0.437    c2.813-3.055,2.618-7.811-0.437-10.625c-2.074-1.91-4.201-3.795-6.362-5.636l14.244-24.671c1.692-2.93,2.142-6.344,1.266-9.614    c-0.876-3.269-2.972-6.002-5.903-7.693l-46.38-26.778c-6.049-3.494-13.813-1.411-17.305,4.638l-14.214,24.619    c-11.012-3.92-22.349-6.953-33.846-9.052V12.67c0.004-6.985-5.679-12.669-12.665-12.669h-53.553    c-6.986,0-12.669,5.684-12.669,12.669v28.444c-11.497,2.099-22.834,5.132-33.846,9.052l-14.214-24.619    c-3.492-6.051-11.257-8.129-17.306-4.638L104.81,47.687c-2.931,1.691-5.027,4.424-5.903,7.693    c-0.876,3.269-0.426,6.683,1.266,9.613l14.244,24.672c-8.888,7.575-17.18,15.867-24.755,24.755L64.99,100.176    c-6.05-3.493-13.813-1.412-17.305,4.638L20.91,151.19c-1.692,2.93-2.142,6.344-1.266,9.614c0.876,3.269,2.972,6.002,5.903,7.693    l24.619,14.214c-3.92,11.011-6.953,22.35-9.053,33.845H12.669C5.684,216.556,0,222.239,0,229.225v53.553    c0,6.986,5.683,12.669,12.668,12.669h28.444c2.1,11.494,5.133,22.834,9.053,33.845l-24.619,14.214    c-2.931,1.691-5.027,4.423-5.903,7.693c-0.876,3.269-0.426,6.683,1.266,9.613l26.777,46.378c3.492,6.05,11.256,8.13,17.306,4.638    l24.672-14.244c7.575,8.888,15.866,17.18,24.755,24.755l-14.244,24.671c-1.692,2.93-2.142,6.344-1.266,9.614    c0.876,3.269,2.972,6.002,5.903,7.693l46.38,26.777c6.05,3.494,13.813,1.412,17.305-4.638l14.214-24.619    c11.012,3.92,22.349,6.953,33.846,9.052v28.444c0,6.986,5.683,12.669,12.669,12.669h53.553c6.986,0,12.669-5.684,12.669-12.669    v-28.444c11.497-2.099,22.834-5.132,33.846-9.052l14.214,24.619c3.492,6.05,11.256,8.129,17.306,4.638l46.379-26.777    c2.931-1.691,5.027-4.424,5.903-7.693c0.876-3.269,0.426-6.683-1.266-9.613l-14.244-24.672    c8.888-7.575,17.18-15.867,24.755-24.755l24.672,14.244c6.048,3.493,13.813,1.412,17.305-4.638l26.776-46.377    c1.692-2.93,2.142-6.344,1.266-9.614c-0.876-3.269-2.972-6.002-5.903-7.693l-24.619-14.214c3.92-11.011,6.953-22.351,9.053-33.845    h28.444c6.985,0,12.668-5.684,12.668-12.669v-53.553C512,222.239,506.317,216.556,499.332,216.556z" fill="#ffffff" data-original="#000000" style=""/>
	</g>
</g>
<g xmlns="http://www.w3.org/2000/svg">
	<g>
		<path d="M256,103.067c-84.329,0-152.935,68.606-152.935,152.934c0,11.766,1.343,23.491,3.991,34.852    c0.942,4.044,4.982,6.563,9.03,5.616c4.045-0.942,6.559-4.985,5.616-9.029c-2.388-10.244-3.599-20.822-3.599-31.439    c0-76.037,61.86-137.896,137.897-137.896s137.897,61.86,137.897,137.896c0,63.353-42.948,116.856-101.255,132.945l0.054-43.317    c5.92-0.997,10.448-6.145,10.448-12.344v-20.829c0-5.889-4.088-10.829-9.572-12.164c0.779-5.149,2.959-10.021,6.37-14.023    l5.924-6.95c11.213-13.155,12.887-32.02,4.164-46.944l-44.098-75.444c-1.934-3.309-5.272-5.357-9.042-5.641    c-0.289-0.034-0.582-0.056-0.88-0.057c-0.002,0-0.005,0-0.007,0H256c-0.302,0-0.598,0.023-0.891,0.057    c-3.768,0.285-7.104,2.333-9.038,5.64l-44.1,75.445c-8.723,14.924-7.05,33.79,4.164,46.944l5.923,6.949    c3.411,4.002,5.591,8.874,6.37,14.024c-5.484,1.335-9.572,6.275-9.572,12.164v20.829c0,6.192,4.519,11.336,10.43,12.341    l-0.054,43.27c-30.908-8.557-58.294-27.752-76.932-54.851c-2.353-3.423-7.034-4.288-10.457-1.935    c-3.421,2.354-4.287,7.036-1.934,10.457c28.583,41.559,75.721,66.369,126.092,66.369c84.329,0,152.935-68.606,152.935-152.935    S340.329,103.067,256,103.067z M256,238.662c6.08,0,11.025,4.946,11.025,11.026c0,6.079-4.946,11.025-11.025,11.025    s-11.025-4.946-11.025-11.025C244.975,243.608,249.921,238.662,256,238.662z M277.6,392.201    c-7.039,1.112-14.252,1.696-21.599,1.696c-7.341,0-14.604-0.594-21.734-1.732l0.057-46.348h43.334L277.6,392.201z     M288.106,330.779h-64.211v-15.816h64.211V330.779z M278.438,299.923h-44.874c-0.916-8.6-4.408-16.78-10.061-23.412l-5.923-6.947    c-7.07-8.295-8.125-20.19-2.625-29.599l33.527-57.358v42.126c-10.717,3.236-18.545,13.197-18.545,24.955    c0,14.372,11.692,26.064,26.064,26.064s26.064-11.692,26.064-26.064c0-11.758-7.828-21.719-18.545-24.955v-42.128l33.527,57.359    c5.5,9.409,4.445,21.304-2.625,29.598l-5.924,6.949C282.846,283.142,279.354,291.322,278.438,299.923z" fill="#ffffff" data-original="#000000" style=""/>
	</g>
</g>
<g xmlns="http://www.w3.org/2000/svg">
</g>
<g xmlns="http://www.w3.org/2000/svg">
</g>
<g xmlns="http://www.w3.org/2000/svg">
</g>
<g xmlns="http://www.w3.org/2000/svg">
</g>
<g xmlns="http://www.w3.org/2000/svg">
</g>
<g xmlns="http://www.w3.org/2000/svg">
</g>
<g xmlns="http://www.w3.org/2000/svg">
</g>
<g xmlns="http://www.w3.org/2000/svg">
</g>
<g xmlns="http://www.w3.org/2000/svg">
</g>
<g xmlns="http://www.w3.org/2000/svg">
</g>
<g xmlns="http://www.w3.org/2000/svg">
</g>
<g xmlns="http://www.w3.org/2000/svg">
</g>
<g xmlns="http://www.w3.org/2000/svg">
</g>
<g xmlns="http://www.w3.org/2000/svg">
</g>
<g xmlns="http://www.w3.org/2000/svg">
</g>
</g></svg>
